<svg xmlns="http://www.w3.org/2000/svg" viewBox="0 0 1600 900" role="img" aria-labelledby="title desc"><title id="title">IT/OT integration architecture</title><desc id="desc">Illustrative architecture from field devices through PLC and OPC UA to a historian and cloud analytics.</desc><rect width="1600" height="900" fill="#f2eee6"/><text x="88" y="96" fill="#e47725" font-family="Arial,sans-serif" font-size="24" font-weight="700" letter-spacing="4">INDUSTRIAL NETWORKS / 03</text><text x="88" y="151" fill="#252b2c" font-family="Arial,sans-serif" font-size="40" font-weight="700">FROM SHOP FLOOR TO HISTORIAN</text><rect x="80" y="225" width="710" height="470" rx="18" fill="#e4e9e5"/><rect x="810" y="225" width="710" height="470" rx="18" fill="#e8edf1"/><text x="120" y="275" fill="#586666" font-family="Arial,sans-serif" font-size="22" font-weight="700" letter-spacing="3">OT / CONTROL</text><text x="850" y="275" fill="#586666" font-family="Arial,sans-serif" font-size="22" font-weight="700" letter-spacing="3">IT / OPERATIONS</text><g font-family="Arial,sans-serif" text-anchor="middle"><g fill="#fff" stroke="#344247" stroke-width="3"><rect x="130" y="380" width="180" height="140" rx="12"/><rect x="390" y="380" width="180" height="140" rx="12"/><rect x="650" y="380" width="180" height="140" rx="12"/><rect x="920" y="380" width="180" height="140" rx="12"/><rect x="1180" y="380" width="180" height="140" rx="12"/><rect x="1380" y="380" width="120" height="140" rx="12"/></g><g fill="#263336" font-size="23" font-weight="700"><text x="220" y="444">SENSORS</text><text x="480" y="444">PLC</text><text x="740" y="444">OPC UA</text><text x="1010" y="444">GATEWAY</text><text x="1270" y="444">HISTORIAN</text><text x="1440" y="435">CLOUD</text><text x="1440" y="466">/ BI</text></g><g fill="#657477" font-size="17"><text x="220" y="481">field signals</text><text x="480" y="481">control logic</text><text x="740" y="481">data interface</text><text x="1010" y="481">secure bridge</text><text x="1270" y="481">time-series data</text></g></g><g fill="none" stroke="#e47725" stroke-width="8"><path d="M310 450h80m-20-18 20 18-20 18M570 450h80m-20-18 20 18-20 18M830 450h90m-20-18 20 18-20 18M1100 450h80m-20-18 20 18-20 18M1360 450h20"/></g><path d="M480 565v74h790v-74" fill="none" stroke="#168a91" stroke-width="5" stroke-dasharray="12 10"/><text x="820" y="676" text-anchor="middle" fill="#168a91" font-family="Arial,sans-serif" font-size="20">MONITORED DATA FLOW / SEGMENTED NETWORK BOUNDARY</text></svg>